<svg width="59" height="75" viewBox="0 0 59 75" fill="none" xmlns="http://www.w3.org/2000/svg">
<g clip-path="url(#clip0_2_8630)">
<path d="M16.6088 30.6522C17.2446 29.8858 17.5599 28.9034 17.4888 27.9102C16.5135 28.0044 15.6133 28.4746 14.9788 29.2212C14.6626 29.5787 14.4204 29.9952 14.2659 30.4467C14.1114 30.8983 14.0478 31.3759 14.0788 31.8522C14.5646 31.8615 15.0459 31.758 15.4849 31.5498C15.9239 31.3416 16.3086 31.0343 16.6088 30.6522ZM17.4288 32.0332C16.0288 31.9522 14.8488 32.8332 14.1788 32.8332C13.5088 32.8332 12.4888 32.0772 11.3888 32.0972C10.6685 32.1174 9.96612 32.3263 9.35192 32.7031C8.73771 33.0798 8.23317 33.6112 7.88876 34.2442C6.38876 36.8442 7.48876 40.7172 8.94876 42.8342C9.65876 43.8402 10.5088 45.0392 11.6388 45.0002C12.7688 44.9612 13.1188 44.3002 14.4088 44.3002C15.6988 44.3002 16.0788 45.0002 17.1988 44.9752C18.3188 44.9502 19.0988 43.9672 19.7988 42.8752C20.3032 42.129 20.6972 41.3139 20.9688 40.4552C20.2962 40.1577 19.724 39.672 19.3212 39.0566C18.9184 38.4413 18.7023 37.7226 18.6988 36.9872C18.707 36.3347 18.8789 35.6947 19.1986 35.1258C19.5183 34.557 19.9757 34.0775 20.5288 33.7312C20.1773 33.2288 19.7148 32.8141 19.1772 32.5193C18.6396 32.2244 18.0413 32.0574 17.4288 32.0312M26.3588 30.0152V32.8702H28.6388V34.7552H26.3588V41.5102C26.3588 42.5182 26.8088 43.0322 27.8088 43.0322C28.083 43.027 28.3567 43.007 28.6288 42.9722V44.8722C28.1825 44.9446 27.7308 44.9781 27.2788 44.9722C24.9188 44.9722 24.0088 44.0552 24.0088 41.7562V34.8002H22.2188V32.9112H23.9588V30.0172L26.3588 30.0152ZM36.6088 44.8682H34.1088L29.9088 32.9112H32.3988L35.3488 42.5192H35.4088L38.3588 32.9112H40.7988L36.6088 44.8682ZM47.5888 44.8682H45.4288V39.9682H40.7888V37.8112H45.4188V32.9112H47.5788V37.8112H52.2188V39.9692H47.5888V44.8682Z" fill="#1D1D1F"/>
</g>
<path d="M1.37102 71H2.47844L3.32805 68.5801H6.69133L7.54094 71H8.64836L5.53117 62.5449H4.4882L1.37102 71ZM4.96281 63.9102H5.05656L6.38078 67.6836H3.63859L4.96281 63.9102ZM9.88188 73.1094H10.9014V70.0039H10.9952C11.3409 70.6777 12.0967 71.1113 12.9639 71.1113C14.5694 71.1113 15.6123 69.8281 15.6123 67.8477V67.8359C15.6123 65.8672 14.5635 64.5723 12.9639 64.5723C12.085 64.5723 11.3819 64.9883 10.9952 65.6914H10.9014V64.6836H9.88188V73.1094ZM12.7295 70.209C11.5811 70.209 10.878 69.3066 10.878 67.8477V67.8359C10.878 66.377 11.5811 65.4746 12.7295 65.4746C13.8838 65.4746 14.5694 66.3652 14.5694 67.8359V67.8477C14.5694 69.3184 13.8838 70.209 12.7295 70.209ZM17.0861 73.1094H18.1056V70.0039H18.1994C18.5451 70.6777 19.3009 71.1113 20.1681 71.1113C21.7736 71.1113 22.8166 69.8281 22.8166 67.8477V67.8359C22.8166 65.8672 21.7677 64.5723 20.1681 64.5723C19.2892 64.5723 18.5861 64.9883 18.1994 65.6914H18.1056V64.6836H17.0861V73.1094ZM19.9338 70.209C18.7853 70.209 18.0822 69.3066 18.0822 67.8477V67.8359C18.0822 66.377 18.7853 65.4746 19.9338 65.4746C21.088 65.4746 21.7736 66.3652 21.7736 67.8359V67.8477C21.7736 69.3184 21.088 70.209 19.9338 70.209ZM24.3489 71H25.3684V62.1758H24.3489V71ZM29.7836 71.1113C31.2719 71.1113 32.1742 70.2676 32.391 69.4121L32.4027 69.3652H31.3832L31.3598 69.418C31.1898 69.7988 30.6625 70.2031 29.807 70.2031C28.682 70.2031 27.9613 69.4414 27.932 68.1348H32.4789V67.7363C32.4789 65.8496 31.4359 64.5723 29.7191 64.5723C28.0023 64.5723 26.8891 65.9082 26.8891 67.8594V67.8652C26.8891 69.8457 27.9789 71.1113 29.7836 71.1113ZM29.7133 65.4805C30.6449 65.4805 31.3363 66.0723 31.4418 67.3203H27.9496C28.0609 66.1191 28.7758 65.4805 29.7133 65.4805ZM39.5221 71H40.5768V63.4941H43.3014V62.5449H36.7975V63.4941H39.5221V71ZM47.2537 71H48.2966L51.4138 62.5449H50.3064L47.822 69.6348H47.7283L45.2439 62.5449H44.1365L47.2537 71ZM51.7919 68.0703H54.4169V70.7539H55.3661V68.0703H57.9911V67.1211H55.3661V64.4375H54.4169V67.1211H51.7919V68.0703Z" fill="#1D1D1F"/>
<defs>
<clipPath id="clip0_2_8630">
<rect width="47" height="54" fill="white" transform="translate(6.21875)"/>
</clipPath>
</defs>
</svg>
