<svg width="58" height="75" viewBox="0 0 58 75" fill="none" xmlns="http://www.w3.org/2000/svg">
<g clip-path="url(#clip0_2_8645)">
<path d="M30.1658 31.5501C29.9418 31.367 29.6614 31.2669 29.372 31.2667C29.0827 31.2665 28.8022 31.3663 28.5779 31.5491L27.867 32.1321L25.867 33.7721V38.9601C25.8673 39.241 25.9791 39.5103 26.1779 39.7088C26.3766 39.9073 26.6461 40.0187 26.927 40.0185H31.807C32.0879 40.0187 32.3574 39.9073 32.5561 39.7088C32.7549 39.5103 32.8667 39.241 32.867 38.9601V33.7643L30.867 32.1243L30.1658 31.5501ZM30.867 38.0224H27.867V34.7158L29.3719 33.482L30.867 34.708V38.0224ZM30.659 24.9485C30.2986 24.6419 29.8409 24.4734 29.3677 24.4732C28.8945 24.473 28.4366 24.6411 28.076 24.9475L24.4798 27.9838L20.867 31.0339V42.9559C20.8672 43.2183 20.9191 43.4781 21.0198 43.7205C21.1204 43.9628 21.2678 44.183 21.4535 44.3683C21.6392 44.5537 21.8596 44.7007 22.1022 44.8009C22.3447 44.9011 22.6046 44.9525 22.867 44.9522H35.867C36.1294 44.9525 36.3893 44.9011 36.6318 44.8009C36.8743 44.7007 37.0948 44.5537 37.2805 44.3683C37.4662 44.183 37.6136 43.9628 37.7142 43.7205C37.8149 43.4781 37.8668 43.2183 37.867 42.9559V31.034L34.2543 27.984L30.659 24.9485ZM35.867 42.9559H22.867V31.9601L25.212 29.9801L26.1207 29.213C26.1966 29.1228 26.2874 29.0461 26.3891 28.9863L27.577 27.9838L29.367 26.472L31.1575 27.9838L32.3449 28.9862C32.4466 29.046 32.5374 29.1227 32.6133 29.2129L33.522 29.98L35.867 31.9601V42.9559ZM47.0026 31.762L42.867 28.3613V22.5513C42.8669 22.4529 42.8474 22.3555 42.8097 22.2646C42.772 22.1738 42.7167 22.0912 42.647 22.0217C42.5774 21.9522 42.4947 21.8971 42.4038 21.8595C42.3129 21.8219 42.2154 21.8026 42.117 21.8027H40.117C39.9195 21.8065 39.7311 21.8865 39.5913 22.0261C39.4515 22.1656 39.3711 22.3538 39.367 22.5513V25.4835L37.6219 24.0485L35.1942 22.0522L30.957 18.5678C30.5085 18.2006 29.9467 18 29.367 18C28.7873 18 28.2255 18.2006 27.777 18.5678L23.5397 22.052L21.112 24.0483L17.867 26.7167L15.867 28.3613L11.7314 31.762C11.527 31.9306 11.398 32.1735 11.3727 32.4372C11.3474 32.701 11.4279 32.9639 11.5965 33.1683C11.7651 33.3727 12.008 33.5017 12.2717 33.527C12.5355 33.5522 12.7984 33.4717 13.0028 33.3031L15.867 30.9478V46.7561C15.8674 47.1825 15.9518 47.6047 16.1153 47.9985C16.2788 48.3923 16.5184 48.75 16.8201 49.0512C17.1219 49.3525 17.4801 49.5913 17.8742 49.7541C18.2683 49.9169 18.6906 50.0005 19.117 50.0001H39.617C40.0434 50.0005 40.4657 49.9169 40.8598 49.7541C41.2539 49.5913 41.6121 49.3525 41.9139 49.0512C42.2156 48.75 42.4551 48.3923 42.6187 47.9985C42.7822 47.6047 42.8666 47.1825 42.867 46.7561V30.9478L45.7313 33.3031C45.8325 33.3866 45.9491 33.4494 46.0746 33.4878C46.2 33.5262 46.3318 33.5395 46.4623 33.527C46.5929 33.5144 46.7198 33.4763 46.8356 33.4148C46.9515 33.3532 47.0541 33.2695 47.1375 33.1683C47.221 33.0671 47.2838 32.9505 47.3222 32.825C47.3606 32.6996 47.3739 32.5678 47.3614 32.4372C47.3488 32.3066 47.3107 32.1798 47.2492 32.064C47.1876 31.9481 47.1039 31.8455 47.0027 31.762H47.0026ZM40.867 46.7561C40.8664 47.0873 40.7344 47.4046 40.5001 47.6385C40.2657 47.8725 39.9481 48.0038 39.617 48.0038H19.117C18.7859 48.0038 18.4683 47.8725 18.2339 47.6385C17.9996 47.4046 17.8676 47.0873 17.867 46.7561V29.3033L24.2577 24.0483L26.6854 22.052L29.0485 20.1089C29.1383 20.0354 29.2508 19.9952 29.3669 19.9952C29.483 19.9952 29.5955 20.0354 29.6853 20.1089L32.0484 22.052L34.4761 24.0483L40.867 29.3033V46.7561Z" fill="#1D1D1F"/>
</g>
<path d="M1.99656 71H3.05125V67.1504H7.69188V71H8.74656V62.5449H7.69188V66.2012H3.05125V62.5449H1.99656V71ZM13.2496 71.1113C15.0484 71.1113 16.1617 69.8691 16.1617 67.8477V67.8359C16.1617 65.8086 15.0484 64.5723 13.2496 64.5723C11.4508 64.5723 10.3375 65.8086 10.3375 67.8359V67.8477C10.3375 69.8691 11.4508 71.1113 13.2496 71.1113ZM13.2496 70.209C12.0543 70.209 11.3805 69.3359 11.3805 67.8477V67.8359C11.3805 66.3418 12.0543 65.4746 13.2496 65.4746C14.4449 65.4746 15.1188 66.3418 15.1188 67.8359V67.8477C15.1188 69.3359 14.4449 70.209 13.2496 70.209ZM17.6238 71H18.6433V67.0859C18.6433 66.1953 19.2702 65.4746 20.0964 65.4746C20.8933 65.4746 21.4089 65.9609 21.4089 66.7109V71H22.4284V66.9395C22.4284 66.1367 23.0085 65.4746 23.8874 65.4746C24.778 65.4746 25.2058 65.9375 25.2058 66.8691V71H26.2253V66.6348C26.2253 65.3105 25.5046 64.5723 24.2155 64.5723C23.3425 64.5723 22.6218 65.0117 22.282 65.6797H22.1882C21.8952 65.0234 21.2976 64.5723 20.4421 64.5723C19.6159 64.5723 19.0183 64.9648 18.737 65.6445H18.6433V64.6836H17.6238V71ZM30.5233 71.1113C32.0116 71.1113 32.9139 70.2676 33.1307 69.4121L33.1424 69.3652H32.1229L32.0995 69.418C31.9295 69.7988 31.4022 70.2031 30.5467 70.2031C29.4217 70.2031 28.701 69.4414 28.6717 68.1348H33.2186V67.7363C33.2186 65.8496 32.1756 64.5723 30.4588 64.5723C28.742 64.5723 27.6287 65.9082 27.6287 67.8594V67.8652C27.6287 69.8457 28.7186 71.1113 30.5233 71.1113ZM30.453 65.4805C31.3846 65.4805 32.076 66.0723 32.1815 67.3203H28.6893C28.8006 66.1191 29.5155 65.4805 30.453 65.4805ZM39.67 71.1113C40.5196 71.1113 41.1817 70.7422 41.5802 70.0684H41.6739V71H42.6934V66.6758C42.6934 65.3633 41.8321 64.5723 40.2911 64.5723C38.9434 64.5723 37.9825 65.2402 37.8184 66.2305L37.8126 66.2656H38.8321L38.838 66.248C39.002 65.7559 39.5001 65.4746 40.2559 65.4746C41.1993 65.4746 41.6739 65.8965 41.6739 66.6758V67.25L39.8634 67.3613C38.3927 67.4492 37.5606 68.0996 37.5606 69.2246V69.2363C37.5606 70.3848 38.4688 71.1113 39.67 71.1113ZM38.6036 69.2129V69.2012C38.6036 68.5742 39.0255 68.2344 39.9864 68.1758L41.6739 68.0703V68.6445C41.6739 69.5469 40.918 70.2266 39.8809 70.2266C39.1485 70.2266 38.6036 69.8516 38.6036 69.2129ZM44.4367 73.1094H45.4562V70.0039H45.55C45.8957 70.6777 46.6516 71.1113 47.5187 71.1113C49.1242 71.1113 50.1672 69.8281 50.1672 67.8477V67.8359C50.1672 65.8672 49.1184 64.5723 47.5187 64.5723C46.6398 64.5723 45.9367 64.9883 45.55 65.6914H45.4562V64.6836H44.4367V73.1094ZM47.2844 70.209C46.1359 70.209 45.4328 69.3066 45.4328 67.8477V67.8359C45.4328 66.377 46.1359 65.4746 47.2844 65.4746C48.4387 65.4746 49.1242 66.3652 49.1242 67.8359V67.8477C49.1242 69.3184 48.4387 70.209 47.2844 70.209ZM51.6409 73.1094H52.6605V70.0039H52.7542C53.0999 70.6777 53.8558 71.1113 54.723 71.1113C56.3284 71.1113 57.3714 69.8281 57.3714 67.8477V67.8359C57.3714 65.8672 56.3226 64.5723 54.723 64.5723C53.8441 64.5723 53.1409 64.9883 52.7542 65.6914H52.6605V64.6836H51.6409V73.1094ZM54.4886 70.209C53.3402 70.209 52.637 69.3066 52.637 67.8477V67.8359C52.637 66.377 53.3402 65.4746 54.4886 65.4746C55.6429 65.4746 56.3284 66.3652 56.3284 67.8359V67.8477C56.3284 69.3184 55.6429 70.209 54.4886 70.209Z" fill="#1D1D1F"/>
<defs>
<clipPath id="clip0_2_8645">
<rect width="37" height="54" fill="white" transform="translate(10.8672)"/>
</clipPath>
</defs>
</svg>
