<svg width="76" height="75" viewBox="0 0 76 75" fill="none" xmlns="http://www.w3.org/2000/svg">
<g clip-path="url(#clip0_2_8623)">
<path d="M54.0468 28.0079C54.0468 27.6259 54.0468 27.2439 54.0468 26.8619C54.0468 26.5399 54.0408 26.2179 54.0328 25.8969C54.0239 25.1933 53.962 24.4913 53.8478 23.7969C53.7292 23.1012 53.5075 22.4271 53.1898 21.7969C52.5439 20.5314 51.5136 19.5032 50.2468 18.8599C49.6166 18.5423 48.9425 18.3206 48.2468 18.2019C47.5524 18.0877 46.8505 18.0259 46.1468 18.0169C45.8248 18.0079 45.5028 18.0039 45.1808 18.0029C44.7988 18.0029 44.4168 18.0029 44.0338 18.0029H32.0548C31.6728 18.0029 31.2908 18.0029 30.9088 18.0029C30.5868 18.0029 30.2648 18.0089 29.9438 18.0169C29.2402 18.0259 28.5382 18.0877 27.8438 18.2019C27.1481 18.3205 26.474 18.5423 25.8438 18.8599C24.5788 19.505 23.5506 20.5342 22.9068 21.7999C22.5892 22.4302 22.3674 23.1042 22.2488 23.7999C22.1346 24.4943 22.0727 25.1963 22.0638 25.8999C22.0548 26.2219 22.0508 26.5439 22.0498 26.8659C22.0498 27.2479 22.0498 27.6299 22.0498 28.0129V41.1929C22.0498 41.4929 22.0558 41.7989 22.0638 42.1029C22.0722 42.8055 22.1334 43.5065 22.2468 44.1999C22.3654 44.8956 22.5872 45.5697 22.9048 46.1999C23.5504 47.4653 24.5804 48.4935 25.8468 49.1369C26.4771 49.4544 27.1511 49.6762 27.8468 49.7949C28.5412 49.9092 29.2432 49.971 29.9468 49.9799C30.2688 49.9889 30.5908 49.9929 30.9128 49.9939C31.2948 49.9939 31.6768 49.9939 32.0598 49.9939H44.0438C44.4258 49.9939 44.8078 49.9939 45.1898 49.9939C45.5118 49.9939 45.8338 49.9879 46.1548 49.9799C46.8585 49.971 47.5604 49.9092 48.2548 49.7949C48.9505 49.6764 49.6246 49.4546 50.2548 49.1369C51.5175 48.4918 52.5438 47.4638 53.1868 46.1999C53.5043 45.5697 53.7261 44.8956 53.8448 44.1999C53.959 43.5056 54.0209 42.8036 54.0298 42.0999C54.0388 41.7779 54.0428 41.4559 54.0438 41.1339C54.0438 40.7519 54.0438 40.3699 54.0438 39.9869L54.0468 28.0079ZM31.9058 28.3819C32.3377 27.88 32.9467 27.564 33.6058 27.4999C33.653 28.1704 33.4378 28.833 33.0058 29.3479C32.8007 29.6059 32.539 29.8131 32.2408 29.9536C31.9427 30.094 31.6163 30.164 31.2868 30.1579C31.2667 29.8356 31.3111 29.5125 31.4174 29.2076C31.5236 28.9026 31.6897 28.6219 31.9058 28.3819ZM35.2178 37.5999C34.7358 38.3089 34.2398 38.9999 33.4468 39.0179C32.6818 39.0319 32.4268 38.5639 31.5468 38.5639C30.6668 38.5639 30.3848 39.0039 29.6618 39.0319C28.8968 39.0599 28.3158 38.2799 27.8348 37.5719C26.8428 36.1399 26.0918 33.5319 27.1118 31.7719C27.3479 31.3442 27.6918 30.9857 28.1093 30.7321C28.5268 30.4784 29.0034 30.3384 29.4918 30.3259C30.2428 30.3119 30.9368 30.8259 31.3918 30.8259C31.8468 30.8259 32.6528 30.2259 33.6018 30.2869C34.0182 30.3035 34.4252 30.4156 34.7912 30.6147C35.1573 30.8137 35.4726 31.0944 35.7128 31.4349C35.3364 31.6669 35.0248 31.9902 34.8068 32.3748C34.5888 32.7594 34.4715 33.1929 34.4658 33.6349C34.4697 34.1323 34.6175 34.6179 34.8916 35.033C35.1656 35.4481 35.554 35.7749 36.0098 35.9739C35.8254 36.5512 35.5586 37.0988 35.2178 37.5999ZM41.1968 32.1379H39.6468V36.6669C39.6468 37.3669 39.9548 37.6909 40.6328 37.6909C40.8184 37.6879 41.0036 37.6749 41.1878 37.6519V38.9309C40.8847 38.9803 40.5779 39.0034 40.2708 38.9999C38.6708 38.9999 38.0468 38.3859 38.0468 36.8299V32.1389H36.8608V30.8679H38.0468V28.9419H39.6468V30.8679H41.1968V32.1379ZM46.6158 38.9379H44.9158L42.0558 30.8679H43.7468L45.7528 37.3529H45.7908L47.7968 30.8679H49.4588L46.6158 38.9379Z" fill="#1D1D1F"/>
</g>
<path d="M1.0432 71H2.15062L3.00023 68.5801H6.36351L7.21312 71H8.32055L5.20336 62.5449H4.16039L1.0432 71ZM4.635 63.9102H4.72875L6.05297 67.6836H3.31078L4.635 63.9102ZM9.55406 73.1094H10.5736V70.0039H10.6673C11.013 70.6777 11.7689 71.1113 12.6361 71.1113C14.2416 71.1113 15.2845 69.8281 15.2845 67.8477V67.8359C15.2845 65.8672 14.2357 64.5723 12.6361 64.5723C11.7572 64.5723 11.0541 64.9883 10.6673 65.6914H10.5736V64.6836H9.55406V73.1094ZM12.4017 70.209C11.2533 70.209 10.5502 69.3066 10.5502 67.8477V67.8359C10.5502 66.377 11.2533 65.4746 12.4017 65.4746C13.556 65.4746 14.2416 66.3652 14.2416 67.8359V67.8477C14.2416 69.3184 13.556 70.209 12.4017 70.209ZM16.7583 73.1094H17.7778V70.0039H17.8716C18.2173 70.6777 18.9731 71.1113 19.8403 71.1113C21.4458 71.1113 22.4887 69.8281 22.4887 67.8477V67.8359C22.4887 65.8672 21.4399 64.5723 19.8403 64.5723C18.9614 64.5723 18.2583 64.9883 17.8716 65.6914H17.7778V64.6836H16.7583V73.1094ZM19.6059 70.209C18.4575 70.209 17.7544 69.3066 17.7544 67.8477V67.8359C17.7544 66.377 18.4575 65.4746 19.6059 65.4746C20.7602 65.4746 21.4458 66.3652 21.4458 67.8359V67.8477C21.4458 69.3184 20.7602 70.209 19.6059 70.209ZM24.0211 71H25.0406V62.1758H24.0211V71ZM29.4558 71.1113C30.9441 71.1113 31.8464 70.2676 32.0632 69.4121L32.0749 69.3652H31.0554L31.032 69.418C30.862 69.7988 30.3347 70.2031 29.4792 70.2031C28.3542 70.2031 27.6335 69.4414 27.6042 68.1348H32.1511V67.7363C32.1511 65.8496 31.1081 64.5723 29.3913 64.5723C27.6745 64.5723 26.5612 65.9082 26.5612 67.8594V67.8652C26.5612 69.8457 27.6511 71.1113 29.4558 71.1113ZM29.3855 65.4805C30.3171 65.4805 31.0085 66.0723 31.114 67.3203H27.6218C27.7331 66.1191 28.448 65.4805 29.3855 65.4805ZM39.1943 71H40.249V63.4941H42.9736V62.5449H36.4697V63.4941H39.1943V71ZM46.9259 71H47.9688L51.086 62.5449H49.9786L47.4942 69.6348H47.4005L44.9161 62.5449H43.8087L46.9259 71ZM57.3089 71.1113C58.1585 71.1113 58.8206 70.7422 59.2191 70.0684H59.3128V71H60.3323V66.6758C60.3323 65.3633 59.471 64.5723 57.93 64.5723C56.5823 64.5723 55.6214 65.2402 55.4573 66.2305L55.4515 66.2656H56.471L56.4769 66.248C56.6409 65.7559 57.139 65.4746 57.8948 65.4746C58.8382 65.4746 59.3128 65.8965 59.3128 66.6758V67.25L57.5023 67.3613C56.0316 67.4492 55.1995 68.0996 55.1995 69.2246V69.2363C55.1995 70.3848 56.1077 71.1113 57.3089 71.1113ZM56.2425 69.2129V69.2012C56.2425 68.5742 56.6644 68.2344 57.6253 68.1758L59.3128 68.0703V68.6445C59.3128 69.5469 58.5569 70.2266 57.5198 70.2266C56.7874 70.2266 56.2425 69.8516 56.2425 69.2129ZM62.0756 73.1094H63.0952V70.0039H63.1889C63.5346 70.6777 64.2905 71.1113 65.1577 71.1113C66.7631 71.1113 67.8061 69.8281 67.8061 67.8477V67.8359C67.8061 65.8672 66.7573 64.5723 65.1577 64.5723C64.2787 64.5723 63.5756 64.9883 63.1889 65.6914H63.0952V64.6836H62.0756V73.1094ZM64.9233 70.209C63.7748 70.209 63.0717 69.3066 63.0717 67.8477V67.8359C63.0717 66.377 63.7748 65.4746 64.9233 65.4746C66.0776 65.4746 66.7631 66.3652 66.7631 67.8359V67.8477C66.7631 69.3184 66.0776 70.209 64.9233 70.209ZM69.2798 73.1094H70.2994V70.0039H70.3931C70.7388 70.6777 71.4947 71.1113 72.3619 71.1113C73.9673 71.1113 75.0103 69.8281 75.0103 67.8477V67.8359C75.0103 65.8672 73.9615 64.5723 72.3619 64.5723C71.483 64.5723 70.7798 64.9883 70.3931 65.6914H70.2994V64.6836H69.2798V73.1094ZM72.1275 70.209C70.9791 70.209 70.2759 69.3066 70.2759 67.8477V67.8359C70.2759 66.377 70.9791 65.4746 72.1275 65.4746C73.2818 65.4746 73.9673 66.3652 73.9673 67.8359V67.8477C73.9673 69.3184 73.2818 70.209 72.1275 70.209Z" fill="#1D1D1F"/>
<defs>
<clipPath id="clip0_2_8623">
<rect width="32" height="54" fill="white" transform="translate(22.0469)"/>
</clipPath>
</defs>
</svg>
