<svg width="82" height="75" viewBox="0 0 82 75" fill="none" xmlns="http://www.w3.org/2000/svg">
<g clip-path="url(#clip0_2_8637)">
<path d="M51.0999 36.2675C50.4829 34.3541 49.2976 32.6742 47.7019 31.4514C47.2415 31.1271 46.6969 30.9433 46.1341 30.9224C44.9828 30.804 43.8278 30.6942 42.6717 30.6561C42.1795 30.6399 41.6868 30.6321 41.1936 30.6329C40.7006 30.6328 40.2078 30.6406 39.7154 30.6561C38.5594 30.6942 37.4043 30.804 36.253 30.9224C35.6902 30.9433 35.1457 31.1271 34.6852 31.4514C33.1104 32.6942 31.93 34.3671 31.2871 36.2675C30.8337 37.5824 30.6524 38.9758 30.754 40.3631C30.8775 42.2722 31.5235 44.1107 32.6213 45.6776C33.5598 47.0536 34.8179 48.1815 36.2879 48.9646C36.7405 49.228 37.2202 49.4417 37.7187 49.602C38.8538 49.8902 40.0226 50.0241 41.1935 50.0002C42.3645 50.0241 43.5333 49.8902 44.6684 49.6019C45.1669 49.4417 45.6466 49.228 46.0991 48.9645C47.5692 48.1815 48.8273 47.0536 49.7657 45.6775C50.8635 44.1107 51.5095 42.2722 51.633 40.363C51.7491 38.9754 51.5673 37.5791 51.0999 36.2675ZM41.1935 32.6813C38.1311 32.6813 35.6485 32.3036 35.6485 31.8378C35.6485 31.3719 38.1311 30.9943 41.1935 30.9943C44.256 30.9943 46.7385 31.3719 46.7385 31.8378C46.7385 32.3036 44.2559 32.6813 41.1935 32.6813Z" fill="#1D1D1F"/>
<path d="M41.1933 32.2642C43.4327 32.2642 45.248 32.0732 45.248 31.8377C45.248 31.6021 43.4327 31.4111 41.1933 31.4111C38.954 31.4111 37.1387 31.6021 37.1387 31.8377C37.1387 32.0732 38.954 32.2642 41.1933 32.2642Z" fill="#1D1D1F"/>
</g>
<path d="M2.05297 71H3.10765V67.1504H7.74828V71H8.80297V62.5449H7.74828V66.2012H3.10765V62.5449H2.05297V71ZM13.306 71.1113C15.1048 71.1113 16.2181 69.8691 16.2181 67.8477V67.8359C16.2181 65.8086 15.1048 64.5723 13.306 64.5723C11.5072 64.5723 10.3939 65.8086 10.3939 67.8359V67.8477C10.3939 69.8691 11.5072 71.1113 13.306 71.1113ZM13.306 70.209C12.1107 70.209 11.4369 69.3359 11.4369 67.8477V67.8359C11.4369 66.3418 12.1107 65.4746 13.306 65.4746C14.5013 65.4746 15.1752 66.3418 15.1752 67.8359V67.8477C15.1752 69.3359 14.5013 70.209 13.306 70.209ZM17.6802 71H18.6997V67.0859C18.6997 66.1953 19.3266 65.4746 20.1528 65.4746C20.9497 65.4746 21.4653 65.9609 21.4653 66.7109V71H22.4848V66.9395C22.4848 66.1367 23.0649 65.4746 23.9438 65.4746C24.8345 65.4746 25.2622 65.9375 25.2622 66.8691V71H26.2817V66.6348C26.2817 65.3105 25.561 64.5723 24.272 64.5723C23.3989 64.5723 22.6782 65.0117 22.3384 65.6797H22.2446C21.9516 65.0234 21.354 64.5723 20.4985 64.5723C19.6723 64.5723 19.0747 64.9648 18.7934 65.6445H18.6997V64.6836H17.6802V71ZM30.5797 71.1113C32.068 71.1113 32.9703 70.2676 33.1871 69.4121L33.1988 69.3652H32.1793L32.1559 69.418C31.9859 69.7988 31.4586 70.2031 30.6031 70.2031C29.4781 70.2031 28.7574 69.4414 28.7281 68.1348H33.275V67.7363C33.275 65.8496 32.232 64.5723 30.5152 64.5723C28.7984 64.5723 27.6852 65.9082 27.6852 67.8594V67.8652C27.6852 69.8457 28.775 71.1113 30.5797 71.1113ZM30.5094 65.4805C31.441 65.4805 32.1324 66.0723 32.2379 67.3203H28.7457C28.857 66.1191 29.5719 65.4805 30.5094 65.4805ZM34.8659 71H35.9206V67.9824H38.0534C39.6413 67.9824 40.7663 66.8633 40.7663 65.2578V65.2461C40.7663 63.6406 39.6413 62.5449 38.0534 62.5449H34.8659V71ZM37.7839 63.4824C38.9909 63.4824 39.6882 64.1445 39.6882 65.2578V65.2695C39.6882 66.3828 38.9909 67.0449 37.7839 67.0449H35.9206V63.4824H37.7839ZM44.6659 71.1113C46.4647 71.1113 47.578 69.8691 47.578 67.8477V67.8359C47.578 65.8086 46.4647 64.5723 44.6659 64.5723C42.867 64.5723 41.7537 65.8086 41.7537 67.8359V67.8477C41.7537 69.8691 42.867 71.1113 44.6659 71.1113ZM44.6659 70.209C43.4705 70.209 42.7967 69.3359 42.7967 67.8477V67.8359C42.7967 66.3418 43.4705 65.4746 44.6659 65.4746C45.8612 65.4746 46.535 66.3418 46.535 67.8359V67.8477C46.535 69.3359 45.8612 70.209 44.6659 70.209ZM51.372 71.1113C52.2509 71.1113 52.9541 70.6953 53.3408 69.9922H53.4345V71H54.4541V62.1758H53.4345V65.6797H53.3408C52.9951 65.0059 52.2392 64.5723 51.372 64.5723C49.7666 64.5723 48.7236 65.8555 48.7236 67.8359V67.8477C48.7236 69.8164 49.7724 71.1113 51.372 71.1113ZM51.6064 70.209C50.4521 70.209 49.7666 69.3184 49.7666 67.8477V67.8359C49.7666 66.3652 50.4521 65.4746 51.6064 65.4746C52.7548 65.4746 53.458 66.377 53.458 67.8359V67.8477C53.458 69.3066 52.7548 70.209 51.6064 70.209ZM59.5461 71H60.5656V67.0859C60.5656 66.1953 61.1926 65.4746 62.0187 65.4746C62.8156 65.4746 63.3312 65.9609 63.3312 66.7109V71H64.3508V66.9395C64.3508 66.1367 64.9309 65.4746 65.8098 65.4746C66.7004 65.4746 67.1281 65.9375 67.1281 66.8691V71H68.1477V66.6348C68.1477 65.3105 67.427 64.5723 66.1379 64.5723C65.2648 64.5723 64.5441 65.0117 64.2043 65.6797H64.1105C63.8176 65.0234 63.2199 64.5723 62.3645 64.5723C61.5383 64.5723 60.9406 64.9648 60.6594 65.6445H60.5656V64.6836H59.5461V71ZM70.4066 63.4648C70.7933 63.4648 71.1097 63.1484 71.1097 62.7617C71.1097 62.375 70.7933 62.0586 70.4066 62.0586C70.0198 62.0586 69.7034 62.375 69.7034 62.7617C69.7034 63.1484 70.0198 63.4648 70.4066 63.4648ZM69.8909 71H70.9105V64.6836H69.8909V71ZM72.7123 71H73.7319V67.2617C73.7319 66.1543 74.3705 65.4746 75.3784 65.4746C76.3862 65.4746 76.8549 66.0195 76.8549 67.1562V71H77.8745V66.9102C77.8745 65.4102 77.0834 64.5723 75.6655 64.5723C74.7338 64.5723 74.142 64.9648 73.8256 65.6328H73.7319V64.6836H72.7123V71ZM80.1392 63.4648C80.5259 63.4648 80.8423 63.1484 80.8423 62.7617C80.8423 62.375 80.5259 62.0586 80.1392 62.0586C79.7525 62.0586 79.4361 62.375 79.4361 62.7617C79.4361 63.1484 79.7525 63.4648 80.1392 63.4648ZM79.6236 71H80.6431V64.6836H79.6236V71Z" fill="#1D1D1F"/>
<defs>
<clipPath id="clip0_2_8637">
<rect width="22" height="54" fill="white" transform="translate(30.1953)"/>
</clipPath>
</defs>
</svg>
