<svg width="71" height="86" viewBox="0 0 71 86" fill="none" xmlns="http://www.w3.org/2000/svg">
<g clip-path="url(#clip0_2_8615)">
<path d="M48.9879 42.61C50.2862 42.4107 51.4999 41.8424 52.4844 40.9728V45.7028C52.4844 49.9328 47.4785 49.9428 44.0984 50.0005H26.8704C23.4903 49.9421 18.4844 49.9323 18.4844 45.7023V40.9764C19.4702 41.8433 20.6834 42.4101 21.9809 42.61C23.4658 42.8957 24.9764 43.0264 26.4883 43H44.4805C45.9924 43.0264 47.503 42.8957 48.9879 42.61ZM52.4629 38.2889C52.8972 41.7816 46.6283 42.026 44.4805 42.0001H26.4883C24.3399 42.0259 18.0724 41.7817 18.5059 38.2889C19.0696 35.3304 19.788 32.4034 20.658 29.52C22.2366 26.5737 26.7071 27.107 29.7544 27H41.2144C44.2613 27.1076 48.7306 26.5732 50.3107 29.52C50.8807 31.1325 51.4764 33.9806 52.043 36.199C52.2379 36.8834 52.3783 37.5822 52.4629 38.2888V38.2889ZM34.1909 35.8656C34.7438 35.8561 34.9256 35.7009 35.5545 35.7009C36.1834 35.7009 36.3604 35.8656 36.9077 35.8609C37.3787 35.844 37.8305 35.67 38.1912 35.3667C38.4164 35.2156 38.6125 35.0251 38.77 34.8043C38.1138 34.6657 37.6964 34.3543 37.7032 34.0126C37.7219 33.7136 38.0576 33.4394 38.5917 33.2843C37.9645 32.7384 36.23 32.956 35.607 33.0843C34.8052 32.9108 33.2663 32.8043 32.6136 33.3964C31.4377 34.3434 33.0321 35.8516 34.1909 35.8655V35.8656ZM35.5735 32.869C35.9891 32.8839 36.4018 32.7938 36.7735 32.6072C37.0779 32.4414 37.2335 32.2292 37.2097 32.0158C36.8006 32.025 36.3982 32.1209 36.029 32.2973C35.7222 32.4528 35.5576 32.6586 35.5735 32.8689V32.869Z" fill="#1D1D1F"/>
</g>
<path d="M1.23906 71H2.34648L3.19609 68.5801H6.55937L7.40898 71H8.5164L5.39922 62.5449H4.35625L1.23906 71ZM4.83086 63.9102H4.92461L6.24883 67.6836H3.50664L4.83086 63.9102ZM9.74992 73.1094H10.7695V70.0039H10.8632C11.2089 70.6777 11.9648 71.1113 12.832 71.1113C14.4374 71.1113 15.4804 69.8281 15.4804 67.8477V67.8359C15.4804 65.8672 14.4316 64.5723 12.832 64.5723C11.953 64.5723 11.2499 64.9883 10.8632 65.6914H10.7695V64.6836H9.74992V73.1094ZM12.5976 70.209C11.4491 70.209 10.746 69.3066 10.746 67.8477V67.8359C10.746 66.377 11.4491 65.4746 12.5976 65.4746C13.7519 65.4746 14.4374 66.3652 14.4374 67.8359V67.8477C14.4374 69.3184 13.7519 70.209 12.5976 70.209ZM16.9541 73.1094H17.9737V70.0039H18.0674C18.4131 70.6777 19.169 71.1113 20.0362 71.1113C21.6416 71.1113 22.6846 69.8281 22.6846 67.8477V67.8359C22.6846 65.8672 21.6358 64.5723 20.0362 64.5723C19.1573 64.5723 18.4541 64.9883 18.0674 65.6914H17.9737V64.6836H16.9541V73.1094ZM19.8018 70.209C18.6534 70.209 17.9502 69.3066 17.9502 67.8477V67.8359C17.9502 66.377 18.6534 65.4746 19.8018 65.4746C20.9561 65.4746 21.6416 66.3652 21.6416 67.8359V67.8477C21.6416 69.3184 20.9561 70.209 19.8018 70.209ZM24.2169 71H25.2365V62.1758H24.2169V71ZM29.6516 71.1113C31.1399 71.1113 32.0423 70.2676 32.2591 69.4121L32.2708 69.3652H31.2512L31.2278 69.418C31.0579 69.7988 30.5305 70.2031 29.6751 70.2031C28.5501 70.2031 27.8294 69.4414 27.8001 68.1348H32.347V67.7363C32.347 65.8496 31.304 64.5723 29.5872 64.5723C27.8704 64.5723 26.7571 65.9082 26.7571 67.8594V67.8652C26.7571 69.8457 27.847 71.1113 29.6516 71.1113ZM29.5813 65.4805C30.513 65.4805 31.2044 66.0723 31.3098 67.3203H27.8177C27.929 66.1191 28.6438 65.4805 29.5813 65.4805ZM39.3902 71H40.4448V63.4941H43.1694V62.5449H36.6655V63.4941H39.3902V71ZM47.1217 71H48.1647L51.2819 62.5449H50.1744L47.6901 69.6348H47.5963L45.1119 62.5449H44.0045L47.1217 71ZM59.6259 71H60.6571V69.248H61.8583V68.3047H60.6571V62.5449H59.1278C57.9442 64.3086 56.6493 66.3711 55.5067 68.2871V69.248H59.6259V71ZM56.5848 68.3105V68.2402C57.5048 66.6875 58.6122 64.9414 59.5614 63.5234H59.6317V68.3105H56.5848ZM63.5019 71H64.5566V68.0469L65.5703 66.9277L68.623 71H69.9883L66.2969 66.1953L69.6777 62.5449H68.3535L64.6504 66.6523H64.5566V62.5449H63.5019V71Z" fill="#1D1D1F"/>
<path d="M26.1155 85H26.9847V79.5361H27.0628L30.8861 85H31.7405V77.9541H30.8714V83.4375H30.7933L26.97 77.9541H26.1155V85ZM35.4984 85.0928C36.7387 85.0928 37.4906 84.3896 37.6713 83.6768L37.6811 83.6377H36.8314L36.8119 83.6816C36.6703 83.999 36.2309 84.3359 35.518 84.3359C34.5805 84.3359 33.9799 83.7012 33.9555 82.6123H37.7445V82.2803C37.7445 80.708 36.8754 79.6436 35.4447 79.6436C34.0141 79.6436 33.0863 80.7568 33.0863 82.3828V82.3877C33.0863 84.0381 33.9945 85.0928 35.4984 85.0928ZM35.4398 80.4004C36.2162 80.4004 36.7924 80.8936 36.8803 81.9336H33.9701C34.0629 80.9326 34.6586 80.4004 35.4398 80.4004ZM39.9985 85H40.8481L42.02 80.9277H42.0981L43.2749 85H44.1294L45.604 79.7363H44.7593L43.7241 83.9453H43.646L42.4692 79.7363H41.6636L40.4868 83.9453H40.4087L39.3735 79.7363H38.5239L39.9985 85Z" fill="#BF4800"/>
<defs>
<clipPath id="clip0_2_8615">
<rect width="34" height="54" fill="white" transform="translate(18.4844)"/>
</clipPath>
</defs>
</svg>
