<svg width="68" height="75" viewBox="0 0 68 75" fill="none" xmlns="http://www.w3.org/2000/svg">
<g clip-path="url(#clip0_2_8651)">
<path d="M40.2123 37.23C41.8244 35.5918 43.7423 32.999 43.7423 29.9406C43.757 27.2153 42.7008 24.5933 40.801 22.6393C39.8918 21.6923 38.8029 20.9362 37.5979 20.4151C36.393 19.894 35.0962 19.6184 33.7835 19.6045H33.6718C32.3641 19.6223 31.0729 19.8998 29.8733 20.4207C28.6736 20.9417 27.5895 21.6958 26.6837 22.6393C24.7854 24.5918 23.7292 27.2114 23.7423 29.9346C23.7423 32.993 25.6423 35.5859 27.2365 37.23C28.5819 38.8211 29.3069 40.8449 29.2776 42.9284L29.2833 44H38.2306V42.9461C38.1798 40.864 38.8836 38.8338 40.2123 37.23ZM36.2423 53H31.2423V52H36.2423V53ZM38.2423 50H29.2423V49H38.2423V50ZM38.2423 47H29.2423V46H38.2423V47Z" fill="#1D1D1F"/>
</g>
<path d="M0.7332 71H1.84062L2.69023 68.5801H6.05351L6.90312 71H8.01054L4.89336 62.5449H3.85039L0.7332 71ZM4.325 63.9102H4.41875L5.74297 67.6836H3.00078L4.325 63.9102ZM11.4765 71.1113C12.9941 71.1113 13.8437 70.2969 14.1015 69.1543L14.1132 69.0898L13.1054 69.0957L13.0937 69.1309C12.8593 69.834 12.3202 70.209 11.4706 70.209C10.3456 70.209 9.61906 69.2773 9.61906 67.8242V67.8125C9.61906 66.3887 10.3339 65.4746 11.4706 65.4746C12.3788 65.4746 12.9413 65.9785 13.0995 66.5996L13.1054 66.6172H14.1191L14.1132 66.582C13.9257 65.457 13.0058 64.5723 11.4706 64.5723C9.70109 64.5723 8.57609 65.8496 8.57609 67.8125V67.8242C8.57609 69.8281 9.70695 71.1113 11.4765 71.1113ZM18.0713 71.1113C19.5889 71.1113 20.4385 70.2969 20.6963 69.1543L20.708 69.0898L19.7002 69.0957L19.6885 69.1309C19.4541 69.834 18.9151 70.209 18.0655 70.209C16.9405 70.209 16.2139 69.2773 16.2139 67.8242V67.8125C16.2139 66.3887 16.9287 65.4746 18.0655 65.4746C18.9737 65.4746 19.5362 65.9785 19.6944 66.5996L19.7002 66.6172H20.7139L20.708 66.582C20.5205 65.457 19.6006 64.5723 18.0655 64.5723C16.2959 64.5723 15.1709 65.8496 15.1709 67.8125V67.8242C15.1709 69.8281 16.3018 71.1113 18.0713 71.1113ZM24.6603 71.1113C26.1486 71.1113 27.0509 70.2676 27.2677 69.4121L27.2794 69.3652H26.2599L26.2365 69.418C26.0666 69.7988 25.5392 70.2031 24.6837 70.2031C23.5587 70.2031 22.838 69.4414 22.8087 68.1348H27.3556V67.7363C27.3556 65.8496 26.3127 64.5723 24.5959 64.5723C22.8791 64.5723 21.7658 65.9082 21.7658 67.8594V67.8652C21.7658 69.8457 22.8556 71.1113 24.6603 71.1113ZM24.59 65.4805C25.5216 65.4805 26.213 66.0723 26.3185 67.3203H22.8263C22.9377 66.1191 23.6525 65.4805 24.59 65.4805ZM30.9856 71.1113C32.4212 71.1113 33.5169 70.332 33.5169 69.207V69.1953C33.5169 68.293 32.9427 67.7773 31.7532 67.4902L30.7805 67.2559C30.0364 67.0742 29.72 66.8047 29.72 66.377V66.3652C29.72 65.8086 30.2708 65.4219 31.0208 65.4219C31.7825 65.4219 32.2747 65.7676 32.4095 66.2656H33.4114C33.2708 65.2344 32.3509 64.5723 31.0266 64.5723C29.6848 64.5723 28.677 65.3633 28.677 66.4121V66.418C28.677 67.3262 29.2102 67.8418 30.3938 68.123L31.3723 68.3574C32.1516 68.5449 32.4739 68.8438 32.4739 69.2715V69.2832C32.4739 69.8574 31.8704 70.2617 31.0208 70.2617C30.2122 70.2617 29.7083 69.916 29.5384 69.3887H28.4954C28.6126 70.4316 29.5794 71.1113 30.9856 71.1113ZM37.0297 71.1113C38.4652 71.1113 39.5609 70.332 39.5609 69.207V69.1953C39.5609 68.293 38.9867 67.7773 37.7973 67.4902L36.8246 67.2559C36.0805 67.0742 35.7641 66.8047 35.7641 66.377V66.3652C35.7641 65.8086 36.3148 65.4219 37.0648 65.4219C37.8266 65.4219 38.3187 65.7676 38.4535 66.2656H39.4555C39.3148 65.2344 38.3949 64.5723 37.0707 64.5723C35.7289 64.5723 34.7211 65.3633 34.7211 66.4121V66.418C34.7211 67.3262 35.2543 67.8418 36.4379 68.123L37.4164 68.3574C38.1957 68.5449 38.518 68.8438 38.518 69.2715V69.2832C38.518 69.8574 37.9145 70.2617 37.0648 70.2617C36.2562 70.2617 35.7523 69.916 35.5824 69.3887H34.5395C34.6566 70.4316 35.6234 71.1113 37.0297 71.1113ZM43.6187 71.1113C45.4175 71.1113 46.5308 69.8691 46.5308 67.8477V67.8359C46.5308 65.8086 45.4175 64.5723 43.6187 64.5723C41.8198 64.5723 40.7066 65.8086 40.7066 67.8359V67.8477C40.7066 69.8691 41.8198 71.1113 43.6187 71.1113ZM43.6187 70.209C42.4234 70.209 41.7495 69.3359 41.7495 67.8477V67.8359C41.7495 66.3418 42.4234 65.4746 43.6187 65.4746C44.814 65.4746 45.4878 66.3418 45.4878 67.8359V67.8477C45.4878 69.3359 44.814 70.209 43.6187 70.209ZM47.9928 71H49.0123V67.0859C49.0123 66.1602 49.7037 65.5449 50.6764 65.5449C50.8991 65.5449 51.0924 65.5684 51.3034 65.6035V64.6133C51.2037 64.5957 50.9869 64.5723 50.7936 64.5723C49.9381 64.5723 49.3463 64.959 49.1061 65.6211H49.0123V64.6836H47.9928V71ZM52.9822 63.4648C53.3689 63.4648 53.6853 63.1484 53.6853 62.7617C53.6853 62.375 53.3689 62.0586 52.9822 62.0586C52.5955 62.0586 52.2791 62.375 52.2791 62.7617C52.2791 63.1484 52.5955 63.4648 52.9822 63.4648ZM52.4666 71H53.4861V64.6836H52.4666V71ZM57.8661 71.1113C59.3544 71.1113 60.2567 70.2676 60.4735 69.4121L60.4852 69.3652H59.4657L59.4423 69.418C59.2723 69.7988 58.745 70.2031 57.8895 70.2031C56.7645 70.2031 56.0438 69.4414 56.0145 68.1348H60.5614V67.7363C60.5614 65.8496 59.5184 64.5723 57.8016 64.5723C56.0848 64.5723 54.9716 65.9082 54.9716 67.8594V67.8652C54.9716 69.8457 56.0614 71.1113 57.8661 71.1113ZM57.7958 65.4805C58.7274 65.4805 59.4188 66.0723 59.5243 67.3203H56.0321C56.1434 66.1191 56.8583 65.4805 57.7958 65.4805ZM64.1914 71.1113C65.6269 71.1113 66.7227 70.332 66.7227 69.207V69.1953C66.7227 68.293 66.1484 67.7773 64.959 67.4902L63.9863 67.2559C63.2422 67.0742 62.9258 66.8047 62.9258 66.377V66.3652C62.9258 65.8086 63.4766 65.4219 64.2266 65.4219C64.9883 65.4219 65.4805 65.7676 65.6152 66.2656H66.6172C66.4766 65.2344 65.5566 64.5723 64.2324 64.5723C62.8906 64.5723 61.8828 65.3633 61.8828 66.4121V66.418C61.8828 67.3262 62.416 67.8418 63.5996 68.123L64.5781 68.3574C65.3574 68.5449 65.6797 68.8438 65.6797 69.2715V69.2832C65.6797 69.8574 65.0762 70.2617 64.2266 70.2617C63.418 70.2617 62.9141 69.916 62.7441 69.3887H61.7012C61.8184 70.4316 62.7852 71.1113 64.1914 71.1113Z" fill="#1D1D1F"/>
<defs>
<clipPath id="clip0_2_8651">
<rect width="21" height="54" fill="white" transform="translate(23.2422)"/>
</clipPath>
</defs>
</svg>
