<svg width="49" height="57" viewBox="0 0 49 57" fill="none" xmlns="http://www.w3.org/2000/svg">
<g clip-path="url(#clip0_2_1699)">
<path d="M47.8447 28.4697L41.169 21.3409C40.7261 20.8681 40.1836 20.4997 39.5808 20.2624C38.978 20.0251 38.3299 19.9248 37.6836 19.9688H33V15.9688C33 14.6427 32.4732 13.3709 31.5355 12.4332C30.5979 11.4955 29.3261 10.9688 28 10.9688H5C4.34339 10.9688 3.69321 11.0981 3.08658 11.3494C2.47995 11.6006 1.92876 11.9689 1.46447 12.4332C0.526784 13.3709 0 14.6427 0 15.9688L0 36.9688C0 37.6254 0.129329 38.2755 0.380602 38.8822C0.631876 39.4888 1.00017 40.04 1.46447 40.5043C1.92876 40.9686 2.47995 41.3369 3.08658 41.5881C3.69321 41.8394 4.34339 41.9688 5 41.9688H6.15C6.27311 43.3691 6.91638 44.6724 7.95298 45.6219C8.98958 46.5714 10.3443 47.098 11.75 47.098C13.1557 47.098 14.5104 46.5714 15.547 45.6219C16.5836 44.6724 17.2269 43.3691 17.35 41.9688H31.15C31.2731 43.3691 31.9164 44.6724 32.953 45.6219C33.9896 46.5714 35.3443 47.098 36.75 47.098C38.1557 47.098 39.5104 46.5714 40.547 45.6219C41.5836 44.6724 42.2269 43.3691 42.35 41.9688H44.9936C47.54 41.9688 49 40.5596 49 38.1031V31.3515C49.0023 30.2777 48.5882 29.2447 47.8447 28.4697ZM15.3245 41.9688C15.2078 42.834 14.7813 43.6276 14.1239 44.2022C13.4666 44.7769 12.6231 45.0936 11.75 45.0936C10.877 45.0936 10.0335 44.7769 9.37617 44.2022C8.71885 43.6276 8.29227 42.834 8.1756 41.9688C8.05257 41.2889 8.15231 40.5874 8.46 39.9688C8.80592 39.2205 9.39651 38.6126 10.1344 38.2451C10.8722 37.8776 11.7133 37.7725 12.5189 37.9473C13.3245 38.122 14.0464 38.5661 14.5657 39.2062C15.085 39.8464 15.3707 40.6445 15.3755 41.4688C15.3703 41.6364 15.3533 41.8035 15.3245 41.9688ZM31 39.9688H17.1665C16.8395 38.7832 16.1326 37.7376 15.1542 36.9925C14.1757 36.2473 12.9799 35.8438 11.75 35.8438C10.5201 35.8438 9.32426 36.2473 8.34583 36.9925C7.36739 37.7376 6.66046 38.7832 6.3335 39.9688H5C4.20462 39.9679 3.44206 39.6515 2.87964 39.0891C2.31722 38.5267 2.00087 37.7641 2 36.9688V15.9688C2.00087 15.1734 2.31722 14.4108 2.87964 13.8484C3.44206 13.286 4.20462 12.9696 5 12.9688H28C28.7954 12.9696 29.5579 13.286 30.1204 13.8484C30.6828 14.4108 30.9991 15.1734 31 15.9688V39.9688ZM40.3245 41.9688C40.2078 42.834 39.7812 43.6276 39.1239 44.2022C38.4666 44.7769 37.6231 45.0936 36.75 45.0936C35.877 45.0936 35.0335 44.7769 34.3762 44.2022C33.7188 43.6276 33.2923 42.834 33.1756 41.9688C33.0524 41.2889 33.152 40.5875 33.4595 39.9688C33.8054 39.2205 34.396 38.6126 35.1339 38.2451C35.8717 37.8776 36.7128 37.7725 37.5184 37.9473C38.324 38.122 39.0459 38.5661 39.5652 39.2062C40.0845 39.8464 40.3702 40.6445 40.375 41.4688C40.37 41.6364 40.3531 41.8035 40.3245 41.9688ZM47 38.1031C47 39.4288 46.419 39.9688 44.9932 39.9688H42.1665C41.9128 39.0459 41.4273 38.2032 40.7561 37.5208C40.085 36.8384 39.2505 36.339 38.3319 36.07C37.4134 35.801 36.4413 35.7714 35.5081 35.9839C34.5748 36.1965 33.7115 36.6442 33 37.2845V21.9688H37.6836C38.0564 21.9276 38.4337 21.9733 38.7859 22.1023C39.1381 22.2313 39.4556 22.4402 39.7136 22.7125L46.4011 29.8535C46.785 30.2579 46.9993 30.794 47 31.3515V38.1031ZM43.6087 30.0814C43.7315 30.1944 43.8296 30.3316 43.897 30.4843C43.9643 30.6369 43.9994 30.8019 44 30.9688H36.2227C36.0582 30.9808 35.8931 30.957 35.7386 30.8992C35.5842 30.8414 35.4441 30.7508 35.3279 30.6337C35.2118 30.5167 35.1223 30.3759 35.0657 30.2209C35.0091 30.066 34.9867 29.9007 35 29.7363V23.9688H37.4131C37.6687 23.9645 37.9218 24.0185 38.1534 24.1267C38.385 24.2349 38.5888 24.3944 38.7495 24.5931L43.6087 30.0814Z" fill="#6CCA4E"/>
</g>
<defs>
<clipPath id="clip0_2_1699">
<rect width="49" height="56" fill="white" transform="translate(0 0.96875)"/>
</clipPath>
</defs>
</svg>
